<svg width="16" height="16" viewBox="0 0 16 16" fill="white" xmlns="http://www.w3.org/2000/svg">
  <path d="M8 0C3.58 0 0 3.58 0 8C0 11.54 2.29 14.38 5.47 15.35C5.88 15.43 6.02 15.18 6.02 14.98C6.02 14.81 6.01 14.31 6.01 13.69C3.84 14.09 3.37 12.83 3.37 12.83C3.01 11.9 2.5 11.65 2.5 11.65C1.82 11.18 2.58 11.19 2.58 11.19C3.37 11.24 3.78 12.07 3.78 12.07C4.47 13.3 5.61 12.93 6.04 12.73C6.11 12.26 6.31 11.97 6.54 11.78C4.77 11.59 2.91 10.89 2.91 7.78C2.91 6.89 3.25 6.16 3.81 5.61C3.72 5.41 3.4 4.57 3.89 3.43C3.89 3.43 4.64 3.19 6.01 4.15C6.65 3.97 7.35 3.89 8.05 3.89C8.75 3.89 9.45 3.97 10.09 4.15C11.46 3.19 12.21 3.43 12.21 3.43C12.7 4.57 12.38 5.41 12.29 5.61C12.85 6.16 13.19 6.89 13.19 7.78C13.19 10.9 11.32 11.59 9.55 11.78C9.83 12.03 10.08 12.54 10.08 13.3C10.08 14.23 10.07 14.84 10.07 14.98C10.07 15.18 10.21 15.43 10.62 15.35C13.81 14.38 16.1 11.54 16.1 8C16.1 3.58 12.52 0 8 0Z" fill="white"/>
</svg>
